<?xml version="1.0" encoding="UTF-8"?>
<svg id="Layer_1" data-name="Layer 1" xmlns="http://www.w3.org/2000/svg" xmlns:xlink="http://www.w3.org/1999/xlink" viewBox="0 0 650.22 556.83">
  <defs>
    <style>
      .cls-1 {
        stroke: url(#New_Gradient_Swatch_1-5);
      }

      .cls-1, .cls-2, .cls-3 {
        stroke-width: 5px;
      }

      .cls-1, .cls-2, .cls-3, .cls-4, .cls-5, .cls-6 {
        fill: none;
        stroke-linecap: round;
        stroke-miterlimit: 10;
      }

      .cls-2 {
        stroke: url(#New_Gradient_Swatch_1-7);
      }

      .cls-3 {
        stroke: url(#New_Gradient_Swatch_1-6);
      }

      .cls-4 {
        stroke: url(#New_Gradient_Swatch_1-3);
      }

      .cls-4, .cls-5, .cls-6 {
        stroke-width: 3px;
      }

      .cls-5 {
        stroke: url(#New_Gradient_Swatch_1-2);
      }

      .cls-6 {
        stroke: url(#New_Gradient_Swatch_1);
      }

      .cls-7 {
        fill: url(#New_Gradient_Swatch_1-4);
      }
    </style>
    <linearGradient id="New_Gradient_Swatch_1" data-name="New Gradient Swatch 1" x1="545.45" y1="-91.95" x2="469.81" y2="-7.93" gradientTransform="translate(-215.09 426.77) rotate(7.1)" gradientUnits="userSpaceOnUse">
      <stop offset="0" stop-color="#cc52ff"/>
      <stop offset=".08" stop-color="#cd54f5"/>
      <stop offset=".23" stop-color="#cf5ddc"/>
      <stop offset=".41" stop-color="#d46ab2"/>
      <stop offset=".62" stop-color="#db7c78"/>
      <stop offset=".86" stop-color="#e39330"/>
      <stop offset="1" stop-color="#e9a300"/>
    </linearGradient>
    <linearGradient id="New_Gradient_Swatch_1-2" data-name="New Gradient Swatch 1" x1="582.81" y1="-148.18" x2="458.5" y2="-10.1" xlink:href="#New_Gradient_Swatch_1"/>
    <linearGradient id="New_Gradient_Swatch_1-3" data-name="New Gradient Swatch 1" x1="454.18" y1="-165.39" x2="377.5" y2="-80.21" xlink:href="#New_Gradient_Swatch_1"/>
    <linearGradient id="New_Gradient_Swatch_1-4" data-name="New Gradient Swatch 1" x1="291.22" y1="-239.57" x2="732.16" y2="-239.57" xlink:href="#New_Gradient_Swatch_1"/>
    <linearGradient id="New_Gradient_Swatch_1-5" data-name="New Gradient Swatch 1" x1="776.76" y1="-455.3" x2="739" y2="-413.36" xlink:href="#New_Gradient_Swatch_1"/>
    <linearGradient id="New_Gradient_Swatch_1-6" data-name="New Gradient Swatch 1" x1="637.05" y1="-7.92" x2="594.92" y2="38.88" xlink:href="#New_Gradient_Swatch_1"/>
    <linearGradient id="New_Gradient_Swatch_1-7" data-name="New Gradient Swatch 1" x1="359.62" y1="-395.55" x2="291.08" y2="-319.41" xlink:href="#New_Gradient_Swatch_1"/>
  </defs>
  <path class="cls-6" d="m213.43,430.03c42.43-7.77,86.43-6.84,128.49,2.71,12.69,2.88,26.01,7.05,34.28,17.09"/>
  <path class="cls-5" d="m443.28,425.24c-36.62-12.21-74.91-18.46-113.01-24.66-19.05-3.1-38.15-6.21-57.43-7.18-31.21-1.58-62.41,2.46-93.4,6.48"/>
  <path class="cls-4" d="m135.84,352.76c15.6,5.86,32.38,8.56,49.04,7.88,13.4-.55,26.61-3.25,39.95-4.62,21.62-2.22,43.59-.94,64.8,3.79"/>
  <path class="cls-7" d="m542.27,266.74c7.99-121.3-84.25-226.48-205.49-234.48-54.48-3.59-107.22,12.7-149.91,46.02,4.24,4.37,7.65,9.52,10.02,15.17,9.79-7.74,20.16-14.51,31-20.25,5.39,8.21,15.8,14.22,30.54,17.58,14.1,3.21,28.77,4.59,42.97,5.92,22.97,2.15,44.67,4.19,64.76,13.26,9.38,4.24,18.25,10.03,26.83,15.64,8.17,5.33,16.61,10.85,25.63,15.16,10.84,5.17,22.55,8.53,34.49,10.01,14.24,1.77,28.8.86,42.65-2.76,4.46,7.39,8.43,15.04,11.88,22.88-17.79,8.96-39.7,6.48-62.46,2.84-22.89-3.66-46.56-7.45-68.92-14.69-4.49-1.45-9.03-3.08-13.43-4.66-9.53-3.41-19.37-6.94-29.55-9.03-13.45-2.76-27.31-2.98-40.71-3.18-5.14-.08-10.45-.16-15.64-.39-22.67-.99-45.18-4.8-66.91-11.34-4.2-1.26-8.02-2.64-11.46-4.12-.59,1.95-1.28,3.84-2.09,5.67,3.59,1.53,7.52,2.95,11.82,4.24,22.21,6.68,45.22,10.58,68.38,11.59,5.27.23,10.63.31,15.81.39,13.12.2,26.69.41,39.59,3.06,9.75,2,19.4,5.46,28.73,8.8,4.44,1.59,9.03,3.24,13.61,4.72,22.8,7.38,46.71,11.21,69.83,14.91,4.61.74,9.18,1.43,13.71,1.99,18.71,2.33,36.54,2.46,52.06-5.23,11.29,27.89,16.23,58.19,14.2,89.1-.1,1.46-.22,2.91-.34,4.35-30.57.75-68.21-1.47-95.77-22.07-1.7-1.27-3.36-2.61-5.02-3.94-3.52-2.83-7.16-5.77-11.24-8.12-10.9-6.28-23.44-7.67-35.58-9-4.23-.47-8.6-.95-12.78-1.64-18.87-3.09-36.86-10.89-52.01-22.56l-1.5-1.17c-3.03-2.37-6.16-4.83-9.92-6.43-4.67-2-9.64-2.41-14.76-2.68-20.54-1.1-41.47-.55-61.71-.01-30.88.81-62.73,1.66-93.51-3.43,3.27-9.97,7.31-19.63,12.08-28.93-6.15-1.26-11.82-3.64-16.83-6.91-13.13,26.06-21.02,54.73-22.99,84.72-3.87,58.76,15.37,115.52,54.18,159.8,35.92,40.99,84.63,66.77,138.28,73.44,4.31.54,8.66.95,13.03,1.24,121.3,7.99,226.49-84.19,234.49-205.49Zm-121.05-131.44c-8.66-4.13-16.93-9.54-24.93-14.76-8.77-5.73-17.85-11.66-27.65-16.09-21.01-9.49-44.22-11.67-66.68-13.77-14-1.31-28.47-2.67-42.2-5.79-9.34-2.13-20.73-6.33-26.44-14.47,31.4-15.42,66.42-22.44,102.27-20.08,4.02.26,8,.64,11.96,1.14,49.23,6.13,93.95,29.79,126.92,67.41,6.62,7.55,12.61,15.49,17.97,23.77-23.62,5.71-49.28,3.11-71.2-7.35Zm-112.25,318.86c-53.96-3.55-103.26-27.9-138.88-68.55-18.12-20.67-31.58-44.31-39.97-69.64,14.45,7.61,31.09,6.27,42.62,3.73,9.5-2.09,18.67-5.51,27.55-8.81,4.3-1.6,8.75-3.26,13.15-4.73,53.52-17.88,114.75-12.19,163.79,15.21,9.57,5.35,18.91,11.6,27.94,17.66,13.82,9.26,28.11,18.83,43.76,25.54,10.92,4.68,22.43,7.94,33.66,11-39.84,51.62-103.82,83.18-173.63,78.58Zm208-146.74c-6.27-3.24-13.99-4.7-21.19-5.79l-72.87-11.04c-10.84-1.64-22.05-3.34-32.3-7.11-5.95-2.19-11.71-5.14-17.29-7.99-5.41-2.77-11.02-5.64-16.92-7.89-11.67-4.46-24.15-6.45-36.22-8.38-13.27-2.12-25.26-4.26-36.86-6.34-35.8-6.41-66.71-11.94-109.31-11.33l-.51.05c-12.05,2.27-22.33,6.1-28.47,8.39-1.41.53-2.59.97-3.48,1.27-1.58.54-2.43,2.25-1.89,3.83.54,1.58,2.25,2.43,3.83,1.89.94-.32,2.17-.78,3.65-1.33,5.92-2.21,15.79-5.89,27.23-8.07,41.88-.58,72.48,4.9,107.89,11.24,11.62,2.08,23.64,4.23,36.97,6.36,11.77,1.88,23.94,3.82,35.02,8.05,5.6,2.14,11.05,4.93,16.33,7.63,5.73,2.93,11.66,5.97,17.95,8.28,10.83,3.98,22.35,5.73,33.48,7.41l72.87,11.04c7.09,1.08,14.72,2.51,20.32,5.73-6.56,20.71-16.34,39.9-28.72,57.05-11.75-3.19-23.88-6.51-35.16-11.35-15.13-6.49-29.19-15.9-42.78-25.01-9.13-6.12-18.58-12.44-28.36-17.91-50.51-28.21-113.55-34.07-168.65-15.66-4.5,1.5-8.99,3.17-13.34,4.79-8.68,3.23-17.66,6.57-26.74,8.57-10.76,2.37-26.33,3.67-39.35-3.6-1.22-.68-2.7-.42-3.63.54-6.91-22.94-9.73-47.18-8.1-71.8,1-15.19,3.65-30.01,7.85-44.26,31.59,5.34,64.04,4.48,95.49,3.65,20.12-.53,40.93-1.08,61.23,0,4.55.24,8.94.6,12.71,2.21,3.03,1.29,5.72,3.4,8.57,5.63l1.54,1.2c15.94,12.28,34.86,20.48,54.72,23.73,4.34.71,8.79,1.2,13.1,1.68,12.05,1.34,23.43,2.59,33.23,8.24,3.67,2.11,6.97,4.77,10.47,7.58,1.72,1.38,3.43,2.76,5.19,4.08,17.42,13.01,38.4,19.06,59.23,21.66,13.6,1.69,27.13,1.91,39.55,1.62-1.27,10.79-3.39,21.29-6.27,31.46Z"/>
  <circle class="cls-1" cx="590.64" cy="89.39" r="25.71"/>
  <circle class="cls-3" cx="394.26" cy="518.23" r="28.98"/>
  <circle class="cls-2" cx="151.93" cy="112.22" r="48.72"/>
</svg>