<?xml version="1.0" encoding="UTF-8"?>
<svg id="Layer_1" data-name="Layer 1" xmlns="http://www.w3.org/2000/svg" xmlns:xlink="http://www.w3.org/1999/xlink" viewBox="0 0 650.22 556.83">
  <defs>
    <style>
      .cls-1 {
        stroke: url(#New_Gradient_Swatch_1-9);
      }

      .cls-1, .cls-2, .cls-3, .cls-4, .cls-5, .cls-6, .cls-7, .cls-8, .cls-9, .cls-10, .cls-11, .cls-12 {
        stroke-linecap: round;
        stroke-width: 2px;
      }

      .cls-1, .cls-2, .cls-3, .cls-4, .cls-5, .cls-6, .cls-7, .cls-8, .cls-9, .cls-10, .cls-11, .cls-12, .cls-13, .cls-14, .cls-15, .cls-16 {
        fill: none;
        stroke-miterlimit: 10;
      }

      .cls-2 {
        stroke: url(#New_Gradient_Swatch_1-8);
      }

      .cls-3 {
        stroke: url(#New_Gradient_Swatch_1-7);
      }

      .cls-4 {
        stroke: url(#New_Gradient_Swatch_1-6);
      }

      .cls-5 {
        stroke: url(#New_Gradient_Swatch_1-15);
      }

      .cls-6 {
        stroke: url(#New_Gradient_Swatch_1-10);
      }

      .cls-7 {
        stroke: url(#New_Gradient_Swatch_1-13);
      }

      .cls-8 {
        stroke: url(#New_Gradient_Swatch_1-12);
      }

      .cls-9 {
        stroke: url(#New_Gradient_Swatch_1-11);
      }

      .cls-10 {
        stroke: url(#New_Gradient_Swatch_1-17);
      }

      .cls-11 {
        stroke: url(#New_Gradient_Swatch_1-14);
      }

      .cls-12 {
        stroke: url(#New_Gradient_Swatch_1-16);
      }

      .cls-13 {
        stroke: url(#New_Gradient_Swatch_1-3);
      }

      .cls-13, .cls-14, .cls-15, .cls-16 {
        stroke-width: 3px;
      }

      .cls-14 {
        stroke: url(#New_Gradient_Swatch_1-5);
      }

      .cls-15 {
        stroke: url(#New_Gradient_Swatch_1-2);
      }

      .cls-16 {
        stroke: url(#New_Gradient_Swatch_1);
      }

      .cls-17 {
        fill: url(#New_Gradient_Swatch_1-4);
      }
    </style>
    <linearGradient id="New_Gradient_Swatch_1" data-name="New Gradient Swatch 1" x1="-9414.09" y1="-1248.78" x2="-9452.54" y2="-1206.07" gradientTransform="translate(-8898.47 -1890.62) rotate(-174.1)" gradientUnits="userSpaceOnUse">
      <stop offset="0" stop-color="#cc52ff"/>
      <stop offset=".08" stop-color="#cd54f5"/>
      <stop offset=".23" stop-color="#cf5ddc"/>
      <stop offset=".41" stop-color="#d46ab2"/>
      <stop offset=".62" stop-color="#db7c78"/>
      <stop offset=".86" stop-color="#e39330"/>
      <stop offset="1" stop-color="#e9a300"/>
    </linearGradient>
    <linearGradient id="New_Gradient_Swatch_1-2" data-name="New Gradient Swatch 1" x1="-9179.01" y1="-1194.31" x2="-9217.46" y2="-1151.6" xlink:href="#New_Gradient_Swatch_1"/>
    <linearGradient id="New_Gradient_Swatch_1-3" data-name="New Gradient Swatch 1" x1="-9506.93" y1="-1256" x2="-9558.38" y2="-1198.85" xlink:href="#New_Gradient_Swatch_1"/>
    <linearGradient id="New_Gradient_Swatch_1-4" data-name="New Gradient Swatch 1" x1="-9217.25" y1="-1406.7" x2="-9570.32" y2="-1014.5" xlink:href="#New_Gradient_Swatch_1"/>
    <linearGradient id="New_Gradient_Swatch_1-5" data-name="New Gradient Swatch 1" x1="-9440.29" y1="-1384.12" x2="-9524.24" y2="-1290.86" xlink:href="#New_Gradient_Swatch_1"/>
    <linearGradient id="New_Gradient_Swatch_1-6" data-name="New Gradient Swatch 1" x1="-9522.43" y1="-1290.94" x2="-9530.94" y2="-1281.49" xlink:href="#New_Gradient_Swatch_1"/>
    <linearGradient id="New_Gradient_Swatch_1-7" data-name="New Gradient Swatch 1" x1="-9454.1" y1="-1274.28" x2="-9464.66" y2="-1262.55" xlink:href="#New_Gradient_Swatch_1"/>
    <linearGradient id="New_Gradient_Swatch_1-8" data-name="New Gradient Swatch 1" x1="-9429.92" y1="-1287.55" x2="-9439.61" y2="-1276.78" xlink:href="#New_Gradient_Swatch_1"/>
    <linearGradient id="New_Gradient_Swatch_1-9" data-name="New Gradient Swatch 1" x1="-9404.65" y1="-1339.17" x2="-9414.64" y2="-1328.07" xlink:href="#New_Gradient_Swatch_1"/>
    <linearGradient id="New_Gradient_Swatch_1-10" data-name="New Gradient Swatch 1" x1="-9469.54" y1="-1418.9" x2="-9491.37" y2="-1394.65" xlink:href="#New_Gradient_Swatch_1"/>
    <linearGradient id="New_Gradient_Swatch_1-11" data-name="New Gradient Swatch 1" x1="-9514.18" y1="-1406.21" x2="-9526.17" y2="-1392.9" xlink:href="#New_Gradient_Swatch_1"/>
    <linearGradient id="New_Gradient_Swatch_1-12" data-name="New Gradient Swatch 1" x1="-9198.87" y1="-1121.26" x2="-9201.84" y2="-1117.96" xlink:href="#New_Gradient_Swatch_1"/>
    <linearGradient id="New_Gradient_Swatch_1-13" data-name="New Gradient Swatch 1" x1="-9225.33" y1="-1141.63" x2="-9227.54" y2="-1139.17" xlink:href="#New_Gradient_Swatch_1"/>
    <linearGradient id="New_Gradient_Swatch_1-14" data-name="New Gradient Swatch 1" x1="-9313.78" y1="-1146.18" x2="-9322.02" y2="-1137.03" xlink:href="#New_Gradient_Swatch_1"/>
    <linearGradient id="New_Gradient_Swatch_1-15" data-name="New Gradient Swatch 1" x1="-9332.17" y1="-1135.16" x2="-9360.6" y2="-1103.57" xlink:href="#New_Gradient_Swatch_1"/>
    <linearGradient id="New_Gradient_Swatch_1-16" data-name="New Gradient Swatch 1" x1="-9359.82" y1="-1067.9" x2="-9385.06" y2="-1039.86" xlink:href="#New_Gradient_Swatch_1"/>
    <linearGradient id="New_Gradient_Swatch_1-17" data-name="New Gradient Swatch 1" x1="-9359.54" y1="-1009.8" x2="-9367.71" y2="-1000.72" xlink:href="#New_Gradient_Swatch_1"/>
  </defs>
  <circle class="cls-16" cx="358.88" cy="299.22" r="27.24"/>
  <circle class="cls-15" cx="130.64" cy="220.89" r="27.24"/>
  <circle class="cls-13" cx="457.69" cy="309.42" r="36.95"/>
  <path class="cls-17" d="m294.18,541c144.79,14.95,274.75-90.68,289.7-235.47,14.95-144.79-90.68-274.75-235.47-289.7C203.61.88,73.66,106.52,58.71,251.3c-14.95,144.79,90.68,274.75,235.47,289.7Zm268.12-237.7c-13.72,132.89-133,229.84-265.89,216.12-132.89-13.72-229.84-133-216.12-265.89,4.9-47.48,23.28-90.36,50.94-125.26,8.53,36.55,39.56,65.23,78.49,69.25,49.42,5.1,93.77-30.95,98.87-80.37,3.07-29.73-8.7-58.29-30.39-77.18,21.92-3.97,44.74-4.97,67.98-2.57,132.89,13.72,229.84,133,216.12,265.89ZM268.98,41.83c22.77,17.21,35.44,45.27,32.41,74.58-4.69,45.45-45.49,78.61-90.94,73.92-37.76-3.9-67.46-33.01-73.31-69.23,33.87-39.53,80.05-67.78,131.84-79.27Z"/>
  <circle class="cls-14" cx="396.27" cy="413.73" r="61.24"/>
  <path class="cls-4" d="m417.02,343.53c25.48,7.5,44.69,28.29,50.56,53.68"/>
  <path class="cls-3" d="m372.85,344.37c4.97-1.68,10.15-2.84,15.49-3.41"/>
  <path class="cls-2" d="m349.53,357.41c3.23-2.68,6.69-5.09,10.35-7.18"/>
  <path class="cls-1" d="m323.14,410.63c.06-1.47.17-2.94.32-4.42.43-4.13,1.19-8.14,2.26-12.01"/>
  <path class="cls-6" d="m410.74,485.49c-7.06,1.42-14.45,1.82-21.99,1.04-8.88-.92-17.22-3.38-24.78-7.1"/>
  <path class="cls-9" d="m435.09,475.77c-4.68,2.93-9.7,5.34-14.98,7.17"/>
  <path class="cls-8" d="m146.99,179.27c-6.81-6.67-12.66-14.28-17.38-22.58"/>
  <path class="cls-7" d="m164.22,192.85c-1.49-.93-2.94-1.9-4.37-2.9"/>
  <path class="cls-11" d="m258.12,200.09c-3.4,1.46-6.88,2.73-10.45,3.82"/>
  <path class="cls-5" d="m298.37,169.04c-8.39,10.76-18.87,19.74-30.76,26.38"/>
  <path class="cls-12" d="m319.39,97.27c.59,6.46.56,13.07-.13,19.76-.96,9.25-3.12,18.09-6.33,26.37"/>
  <path class="cls-10" d="m307.44,57.98c4.44,8.15,7.79,16.94,9.88,26.16"/>
</svg>