<?xml version="1.0" encoding="UTF-8"?>
<svg id="Layer_1" data-name="Layer 1" xmlns="http://www.w3.org/2000/svg" xmlns:xlink="http://www.w3.org/1999/xlink" viewBox="0 0 650.22 556.83">
  <defs>
    <style>
      .cls-1 {
        fill: url(#New_Gradient_Swatch_1);
      }
    </style>
    <linearGradient id="New_Gradient_Swatch_1" data-name="New Gradient Swatch 1" x1="108.86" y1="233.31" x2="507.72" y2="233.31" gradientUnits="userSpaceOnUse">
      <stop offset="0" stop-color="#cc52ff"/>
      <stop offset=".08" stop-color="#cd54f5"/>
      <stop offset=".23" stop-color="#cf5ddc"/>
      <stop offset=".41" stop-color="#d46ab2"/>
      <stop offset=".62" stop-color="#db7c78"/>
      <stop offset=".86" stop-color="#e39330"/>
      <stop offset="1" stop-color="#e9a300"/>
    </linearGradient>
  </defs>
  <path class="cls-1" d="m477.18,321.15c8.36,0,16.69-3.4,22.72-10.09,11.27-12.52,10.25-31.87-2.27-43.13-1.91-1.72-4.02-3.15-6.24-4.32,1.03-8.02,1.59-16.18,1.59-24.48,0-105.9-86.16-192.06-192.06-192.06-28.25,0-55.09,6.14-79.26,17.14-1.88-7.24-5.83-13.77-11.51-18.89-15.82-14.24-40.28-12.96-54.52,2.86-14.24,15.82-12.96,40.28,2.86,54.52,1.34,1.21,2.76,2.26,4.21,3.24-33.31,34.56-53.83,81.51-53.83,133.18,0,105.9,86.16,192.06,192.06,192.06,44.59,0,85.64-15.31,118.27-40.9,1.52,2.04,3.25,3.95,5.19,5.7,7.37,6.63,16.6,9.9,25.81,9.9,10.57,0,21.1-4.3,28.71-12.76,14.24-15.82,12.96-40.28-2.86-54.52-2.41-2.17-5.04-3.93-7.78-5.39,2.25-3.98,4.37-8.03,6.34-12.18.86.07,1.72.11,2.59.11Zm14.9-17.13c-7.39,8.2-20.07,8.87-28.28,1.48-8.21-7.39-8.87-20.07-1.49-28.28,3.58-3.97,8.49-6.32,13.83-6.6.36-.02.72-.03,1.07-.03,4.95,0,9.66,1.8,13.37,5.14,8.2,7.39,8.87,20.07,1.49,28.28ZM300.92,62.85c57.02,0,107.79,27.22,140.03,69.34-16.8,2.69-53.71,6.71-109.01,2.57-37.07-2.78-67.51-15.48-88.03-36.72-6.94-7.19-11.67-14.24-14.8-19.87,21.95-9.83,46.25-15.3,71.81-15.3Zm-137.48-7.63c10.36-11.51,28.15-12.44,39.66-2.08,5.58,5.02,8.86,11.91,9.26,19.4.39,7.49-2.15,14.69-7.17,20.26-10.36,11.51-28.15,12.44-39.66,2.08-11.51-10.36-12.44-28.15-2.08-39.66Zm20.85,57.38c10.57,0,21.1-4.3,28.71-12.76,4.35-4.83,7.34-10.56,8.83-16.71,3.38,5.96,8.31,13.19,15.4,20.6,15.37,16.07,44.17,36.02,94.05,39.77,17.59,1.32,33.32,1.83,47.17,1.83,34.73,0,57.61-3.24,68.24-5.2,7.73,11.35,14.17,23.64,19.11,36.67-24,3.14-92.07,11.87-155.32,18.22-39.68,3.97-71.96-5.1-95.94-26.99-20.85-19.03-30.01-43.24-33.24-55.56,1,.08,2,.13,3,.13Zm-10.74,4.79c.91,3.18,2.17,7.02,3.91,11.38,5.99,15.01,17.71,36.34,39.54,52.65,20.7,15.47,46.16,23.26,75.86,23.26,5.99,0,12.15-.32,18.48-.95,65.05-6.52,135.16-15.56,157.41-18.49,5.47,16.99,8.43,35.09,8.43,53.88,0,1.46-.02,2.91-.06,4.37-21.9,11.63-104.96,50.59-207.34,33.88-77.05-12.58-113.2-101.41-121.77-125.91,7.13-12.38,15.72-23.82,25.53-34.08Zm-31.08,44.54c4.57,11.93,12.47,29.96,24.41,48.8,27.14,42.85,62.24,68.9,101.51,75.3,18.08,2.95,35.58,4.21,52.27,4.21,74.38,0,132.8-24.99,155.94-36.61-.18,2.18-.41,4.34-.67,6.49-.11,0-.22,0-.34,0-8.15.43-15.64,4-21.1,10.07-8.77,9.74-10.06,23.61-4.32,34.6-11.29,4.77-25.98,10.61-42.49,16.3-49.16,16.91-91.95,24.67-123.74,22.41-47.58-3.37-85.02-35.03-108.05-61-23.17-26.13-40.3-56.03-48.2-76.1,2.95-15.64,7.97-30.57,14.77-44.47Zm158.45,253.47c-71.09,0-132.49-42.31-160.34-103.07,28.98,26.55,86.09,70.18,152.8,75.19,17.6,1.32,33.33,1.84,47.18,1.84,26.12,0,45.52-1.84,58.06-3.58-27.98,18.7-61.59,29.63-97.7,29.63Zm170.16-29.33c-10.36,11.51-28.15,12.44-39.66,2.08-5.58-5.02-8.86-11.91-9.26-19.4-.39-7.49,2.15-14.69,7.17-20.26,5.54-6.15,13.2-9.28,20.89-9.28,6.7,0,13.42,2.38,18.77,7.2,11.51,10.36,12.44,28.15,2.08,39.66Zm-18.49-57.28c-11.35-.69-22.89,3.57-31.07,12.66-6.9,7.66-10.4,17.55-9.86,27.85.09,1.76.34,3.48.66,5.18-7.16,1.58-47.93,9.56-118.28,4.29-76.19-5.71-141.45-66.14-161.07-86.11-5.4-16.89-8.32-34.88-8.32-53.54,0-5.51.27-10.96.76-16.34,9.51,19.57,24.73,43.86,43.93,65.52,24.11,27.19,63.46,60.35,113.99,63.93,3.98.28,8.03.42,12.15.42,57.18,0,125.71-25.86,160.05-40.56.41.41.8.84,1.23,1.23.93.84,1.91,1.58,2.91,2.28-2.18,4.51-4.54,8.91-7.08,13.19Z"/>
</svg>