<?xml version="1.0" encoding="UTF-8"?>
<svg id="Layer_1" data-name="Layer 1" xmlns="http://www.w3.org/2000/svg" xmlns:xlink="http://www.w3.org/1999/xlink" viewBox="0 0 650.22 556.83">
  <defs>
    <style>
      .cls-1 {
        stroke: url(#New_Gradient_Swatch_1-3);
      }

      .cls-1, .cls-2, .cls-3, .cls-4, .cls-5 {
        fill: none;
        stroke-miterlimit: 10;
        stroke-width: 3px;
      }

      .cls-2 {
        stroke: url(#New_Gradient_Swatch_1-5);
      }

      .cls-3 {
        stroke: url(#New_Gradient_Swatch_1-4);
      }

      .cls-4 {
        stroke: url(#New_Gradient_Swatch_1-2);
      }

      .cls-5 {
        stroke: url(#New_Gradient_Swatch_1);
      }

      .cls-6 {
        fill: url(#New_Gradient_Swatch_1-6);
      }
    </style>
    <linearGradient id="New_Gradient_Swatch_1" data-name="New Gradient Swatch 1" x1="-325.48" y1="1019.47" x2="-361.69" y2="1059.69" gradientTransform="translate(360.83 -692.62) rotate(-9.95)" gradientUnits="userSpaceOnUse">
      <stop offset="0" stop-color="#cc52ff"/>
      <stop offset=".08" stop-color="#cd54f5"/>
      <stop offset=".23" stop-color="#cf5ddc"/>
      <stop offset=".41" stop-color="#d46ab2"/>
      <stop offset=".62" stop-color="#db7c78"/>
      <stop offset=".86" stop-color="#e39330"/>
      <stop offset="1" stop-color="#e9a300"/>
    </linearGradient>
    <linearGradient id="New_Gradient_Swatch_1-2" data-name="New Gradient Swatch 1" x1="-109.7" y1="1007.88" x2="-214.95" y2="1124.79" xlink:href="#New_Gradient_Swatch_1"/>
    <linearGradient id="New_Gradient_Swatch_1-3" data-name="New Gradient Swatch 1" x1="-306.35" y1="924.61" x2="-373.65" y2="999.36" xlink:href="#New_Gradient_Swatch_1"/>
    <linearGradient id="New_Gradient_Swatch_1-4" data-name="New Gradient Swatch 1" x1="-87.81" y1="804.31" x2="-253.19" y2="988.02" xlink:href="#New_Gradient_Swatch_1"/>
    <linearGradient id="New_Gradient_Swatch_1-5" data-name="New Gradient Swatch 1" x1="-206.4" y1="772.93" x2="-321.61" y2="900.91" xlink:href="#New_Gradient_Swatch_1"/>
    <linearGradient id="New_Gradient_Swatch_1-6" data-name="New Gradient Swatch 1" x1="-58.66" y1="783.12" x2="-353.26" y2="1110.37" xlink:href="#New_Gradient_Swatch_1"/>
  </defs>
  <path class="cls-5" d="m166.78,389.39c4.45,2.69,10.09,1.89,15.22,1.01,17.12-2.94,34.25-5.89,51.37-8.83.72-.12,1.47-.24,2.16-.02,1.2.39,1.84,1.71,2.06,2.95.79,4.37-2.08,8.72-5.81,11.12-3.73,2.41-8.19,3.31-12.5,4.37-11.27,2.76-22.22,6.83-32.54,12.12"/>
  <path class="cls-4" d="m494.97,362.94c-36.44,6.07-72.92,12.15-109.73,15.25-6.95.58-14.23,1.16-20.14,4.87-3.2,2.01-5.83,4.84-9.11,6.72-3.81,2.18-8.24,2.92-12.57,3.63-21.47,3.52-61.69,2.66-64.41,10.57s9.04,12.1,16.77,12.46c16.88.77,31.23-7.93,50.02-.21,18.8,7.72-6.05,3.54-19.66,12.71s26.99.9,40.41,4.39c6.24,1.62,11.56,5.75,17.71,7.68,9.89,3.1,21.24.31,30.49,4.97"/>
  <path class="cls-1" d="m130.25,286.55c10.67,7.92,24.12,11.44,37.4,12.03,13.28.6,26.52-1.54,39.58-3.99,3.34-.63,7.68-.82,9.21,2.22.76,1.51.49,3.35,1.12,4.91,1.4,3.48,6.1,3.84,9.85,3.62,11.85-.67,23.7-1.35,35.55-2.02,2.33-.13,4.9-.19,6.7,1.3,2.7,2.23,1.96,6.86-.57,9.28-2.53,2.42-6.15,3.23-9.59,3.92-39.7,8.04-79.6,15.06-119.65,21.04"/>
  <path class="cls-3" d="m475.06,154.83c-11.06.65-20.4,7.95-30.33,12.85-22.97,11.35-49.86,10.03-75.09,14.46-22.29,3.92-43.38,12.36-65.01,18.76-42.11,12.45-87.87,17.82-123.49,43.49-23.42,16.44,10.17,10.39,12.17,10.19,36.87-3.56,66.11-20.97,102.07-29.48,1-.24,2.11-.46,3.02.02,1.36.71,1.55,2.71.79,4.05s-2.15,2.16-3.49,2.91c-13.37,7.48-40.84,11.17-41.55,19.21-.71,8.04,20.4,4.82,30.6,2.93,30.96-5.75,60.31-17.8,91.4-23.12,3.13-.54,6.32-1.05,9.47-.6,2.89.41,5.61,1.6,8.43,2.34,5.77,1.52,11.86,1.15,17.81.62,32.26-2.85,64.16-9.71,94.73-20.38"/>
  <path class="cls-2" d="m165.52,149.36c32.54-3.88,64.7-11.03,95.82-21.29,7.91-2.61,15.93-5.45,24.26-5.58,9.16-.14,18.13,3.06,26.05,7.68,4.77,2.78,9.31,6.12,14.54,7.88,10.07,3.39,23.01,1.3,29.69,9.57.84,1.03,1.54,2.25,1.61,3.58.1,1.9-1.09,3.61-2.3,5.08-12.01,14.49-32.7,21.16-50.92,16.41-3.45-.9-6.85-2.18-10.41-2.36-8.52-.43-15.91,5.32-23.61,8.99-6.98,3.32-14.61,5.01-22.18,6.61-38.55,8.19-77.4,14.99-116.44,20.39"/>
  <path class="cls-6" d="m505.12,181.49c-16.92-33.22-42.65-61.29-75.17-81.39-46.83-28.95-102.14-37.93-155.71-25.28-85.92,20.28-146.57,91.92-157.14,174.74-52.82,19.53-112.05,48.8-106.5,80.43,4.01,22.85,39.31,35.91,104.92,38.81,7.25.32,14.77.51,22.52.56,16.92,33.22,42.65,61.28,75.17,81.39,43.35,26.79,93.95,36.48,143.73,27.74,4-.7,8-1.52,11.98-2.46,53.58-12.64,99.04-45.4,127.98-92.23,15.79-25.55,25.62-53.61,29.26-82.54,7.26-2.69,14.25-5.42,20.96-8.19,60.7-25.06,89.45-49.35,85.44-72.21-5.55-31.61-71.14-38.98-127.44-39.37Zm-226.99-90.19c3.66-.86,7.32-1.62,11-2.26,45.69-8.02,92.14.87,131.92,25.46,31.12,19.24,55.46,46.42,70.94,78.62.05.13.12.24.17.37,5.81,12.17,10.37,25.04,13.54,38.48,4.47,18.94,5.98,38.12,4.65,56.99-50.23,17.76-112.28,33.49-178.48,45.1-66.19,11.61-129.86,17.95-183.13,18.35-4.74-10.7-8.53-21.91-11.28-33.54-23.96-101.52,39.14-203.61,140.67-227.57ZM116.27,351.87c-82.9-3.66-88.61-22.66-88.98-24.82-1.57-8.97,15.76-31.02,88.3-58.83-.63,17.94,1.08,36.24,5.39,54.53,2.4,10.16,5.52,20.03,9.33,29.55-4.78-.09-9.47-.24-14.04-.44Zm366.23,23.01c-26.57,42.98-68.29,73.05-117.47,84.65-3.66.86-7.32,1.62-11,2.26-45.69,8.01-92.14-.87-131.92-25.47-27.33-16.89-49.43-39.92-64.89-67.09,52.45-.98,113.93-7.33,177.57-18.5,63.65-11.17,123.62-26.12,173.28-43.06-4.07,23.52-12.65,46.29-25.58,67.21Zm58.16-97.48c-4.22,1.74-8.56,3.46-13.01,5.17.6-18.1-1.19-36.4-5.47-54.5-2.4-10.16-5.52-20.03-9.33-29.55,77.65,1.46,101.45,16.28,103.02,25.25.38,2.15,1.48,21.96-75.22,53.63Z"/>
</svg>