<svg id="Layer_1" data-name="Layer 1" xmlns="http://www.w3.org/2000/svg" viewBox="0 0 100 100"><defs><style>.cls-1,.cls-2{fill:none;stroke:#000;stroke-linecap:round;}.cls-1{stroke-miterlimit:10;}.cls-2{stroke-linejoin:round;}</style></defs><path class="cls-1" d="M49.26,5.19s-11.87,8.1-12.84,39.6c12.84,16.39,25.67,0,25.67,0C60.8,12.85,49.26,5.19,49.26,5.19"/><path class="cls-1" d="M41.59,16.82s6.17,5.8,15.33,0"/><path class="cls-2" d="M36.93,36.34l-7.41,3.11a4.63,4.63,0,0,0-2.84,4.06L26,58.68a1.28,1.28,0,0,0,2.18,1l6-5.82A4.63,4.63,0,0,0,35.5,51Z"/><path class="cls-2" d="M36.42,44.79S35.12,57.62,38,64.2H59.29s3.89-7.38,2.8-19.41"/><path class="cls-2" d="M61.49,36.34l7.41,3.11a4.63,4.63,0,0,1,2.84,4.06l.69,15.17a1.28,1.28,0,0,1-2.18,1l-6-5.82A4.58,4.58,0,0,1,62.92,51Z"/><circle class="cls-1" cx="49.21" cy="33.61" r="7.31"/><line class="cls-1" x1="41.74" y1="66.89" x2="41.74" y2="79.02"/><line class="cls-1" x1="49.21" y1="71.64" x2="49.21" y2="83.77"/><line class="cls-1" x1="56.67" y1="66.89" x2="56.67" y2="79.02"/><path class="cls-1" d="M24.42,98.25s3.69-9.36,11.6-2c0,0,2.23-8.17,8.3-6.19,0,0,4.76-6.2,9.37-1.85"/><path class="cls-1" d="M75.58,98.25s-3.69-9.36-11.6-2c0,0-2.23-8.17-8.3-6.19,0,0-4.76-6.2-9.37-1.85"/></svg>