<svg id="Layer_1" data-name="Layer 1" xmlns="http://www.w3.org/2000/svg" viewBox="0 0 100 100"><defs><style>.cls-1,.cls-2{fill:none;stroke:#fff;stroke-linecap:round;}.cls-1{stroke-miterlimit:10;}.cls-2{stroke-linejoin:round;}</style></defs><path class="cls-1" d="M50.05,20.5S38.18,28.59,37.21,60.09c12.84,16.39,25.68,0,25.68,0C61.59,28.15,50.05,20.5,50.05,20.5"/><path class="cls-1" d="M42.38,32.12s6.17,5.8,15.33,0"/><path class="cls-2" d="M37.72,51.65l-7.41,3.1a4.63,4.63,0,0,0-2.84,4.06L26.78,74A1.28,1.28,0,0,0,29,75l6-5.82a4.63,4.63,0,0,0,1.37-2.86Z"/><path class="cls-2" d="M37.21,60.09S35.92,72.92,38.83,79.5H60.08S64,72.12,62.89,60.09"/><path class="cls-2" d="M62.28,51.65l7.41,3.1a4.63,4.63,0,0,1,2.84,4.06L73.22,74A1.28,1.28,0,0,1,71,75l-6-5.82a4.63,4.63,0,0,1-1.37-2.86Z"/><circle class="cls-1" cx="50" cy="48.91" r="7.31"/></svg>